<svg viewBox="0 0 158 18" xmlns="http://www.w3.org/2000/svg"><g fill-rule="evenodd"><path d="m11.568.44h5.352c.192 0 .312.168.24.336l-5.496 15.888c-.048.168-.24.336-.432.336h-5.28c-.192 0-.384-.168-.432-.336l-5.496-15.888c-.072-.168.048-.336.24-.336h5.352c.216 0 .408.168.456.336l2.52 9.864 2.52-9.864c.048-.168.24-.336.456-.336zm11.424 12.24h6.552c.192 0 .36.144.36.312v3.672c0 .168-.168.336-.36.336h-11.16c-.168 0-.336-.192-.384-.36v-15.864c0-.216.12-.336.336-.336h10.92c.216 0 .384.168.384.336v3.624c0 .216-.168.36-.384.36h-6.264v1.896h5.088c.216 0 .336.168.312.312l-.336 3.36c-.024.144-.192.312-.408.312h-4.656zm15.888-5.832h6.504c.192 0 .36.168.36.336v7.632c0 .216-.12.432-.288.576-1.44 1.224-3.648 1.944-5.952 1.944-5.184 0-8.64-3.456-8.64-8.64s3.456-8.64 8.64-8.64c1.776 0 3.648.528 5.04 1.392.192.096.264.288.216.432l-1.2 3.528c-.072.168-.24.24-.456.192-.984-.528-2.256-.84-3.456-.84-2.208 0-3.696 1.584-3.696 3.936 0 2.4 1.488 3.984 3.696 3.984.888 0 1.488-.168 1.752-.456v-1.392h-2.208c-.216 0-.36-.096-.384-.264l-.312-3.312c-.024-.24.12-.408.384-.408zm18.672-6.096 5.424 15.936c.072.144-.024.312-.216.312h-4.752c-.216 0-.408-.12-.504-.312l-.72-2.52h-4.512l-.72 2.52c-.096.192-.288.312-.504.312h-4.752c-.192 0-.288-.168-.216-.312l5.424-15.936c.072-.144.336-.312.576-.312h4.896c.24 0 .504.168.576.312zm-1.728 9.984-1.296-4.56-1.296 4.56zm17.16-10.296h4.248c.216 0 .36.168.36.36v15.864c0 .168-.144.336-.36.336h-4.152c-.168 0-.384-.12-.504-.312l-4.176-7.464v7.44c0 .168-.144.336-.36.336h-4.248c-.192 0-.336-.168-.336-.336v-15.864c0-.192.144-.36.336-.36h4.152c.216 0 .456.12.552.312l4.152 7.464v-7.416c0-.192.168-.36.336-.36z"/><path d="m93.752 10.448 3.816 6.168c.12.216-.048.384-.264.384h-5.136c-.24 0-.456-.168-.552-.384l-2.496-5.232h-.288v5.28c0 .168-.168.336-.384.336h-4.224c-.192 0-.36-.168-.36-.336v-15.864c0-.192.168-.36.36-.36h6.336c3.696 0 6.144 2.16 6.144 5.424 0 1.896-1.152 3.816-2.952 4.584zm-4.92-3.144h1.416c.816 0 1.368-.504 1.368-1.272s-.552-1.272-1.368-1.272h-1.416zm17.928 10.032c-5.112 0-8.52-3.456-8.52-8.616 0-5.208 3.408-8.664 8.52-8.664s8.52 3.456 8.52 8.664c0 5.16-3.408 8.616-8.52 8.616zm0-12.432c-1.968 0-3.288 1.536-3.288 3.816s1.32 3.816 3.288 3.816 3.288-1.536 3.288-3.816-1.32-3.816-3.288-3.816zm21.576 7.296 1.584 3.336c.072.168-.024.336-.216.432-1.392.864-3.264 1.392-5.04 1.392-4.944 0-8.256-3.456-8.256-8.64s3.312-8.64 8.256-8.64c1.776 0 3.648.528 5.04 1.392.192.096.288.264.216.432l-1.584 3.336c-.096.216-.264.288-.456.192-.888-.504-1.752-.672-2.784-.672-2.16 0-3.6 1.584-3.6 3.96s1.44 3.96 3.6 3.96c1.032 0 1.896-.168 2.784-.672.192-.096.36-.024.456.192zm12-3.864 5.112 8.376c.12.168.024.288-.168.288h-5.568c-.168 0-.408-.12-.504-.288l-2.976-6v5.952c0 .168-.144.336-.36.336h-4.248c-.168 0-.336-.168-.336-.336v-15.864c0-.192.168-.36.336-.36h4.248c.216 0 .36.168.36.36v5.376l2.88-5.448c.096-.168.336-.288.552-.288h5.256c.192 0 .264.12.168.288zm5.832 7.008 1.512-3.384c.072-.24.24-.312.432-.192 1.104.624 2.424 1.08 3.336 1.152.768 0 1.272-.36 1.272-.912 0-1.416-6.744-1.344-6.744-6.576 0-3.216 2.424-5.352 6.072-5.352 1.704 0 3.864.696 5.376 1.728.192.12.264.312.192.432l-1.512 3.384c-.072.24-.24.312-.432.192-1.176-.672-2.544-1.176-3.384-1.248-.744 0-1.224.336-1.224.864 0 1.416 6.792 1.32 6.792 6.6 0 3.192-2.472 5.328-6.168 5.328-2.016 0-4.128-.624-5.328-1.584-.192-.144-.264-.312-.192-.432z"/></g></svg>