<?xml version="1.0" encoding="UTF-8"?>
<svg version="1.1" viewBox="0 0 158 18" xmlns="http://www.w3.org/2000/svg">
<g fill-rule="evenodd">
<path id="logo-vegan-type" d="m11.568 0.44h5.352c0.192 0 0.312 0.168 0.24 0.336l-5.496 15.888c-0.048 0.168-0.24 0.336-0.432 0.336h-5.28c-0.192 0-0.384-0.168-0.432-0.336l-5.496-15.888c-0.072-0.168 0.048-0.336 0.24-0.336h5.352c0.216 0 0.408 0.168 0.456 0.336l2.52 9.864 2.52-9.864c0.048-0.168 0.24-0.336 0.456-0.336zm11.424 12.24h6.552c0.192 0 0.36 0.144 0.36 0.312v3.672c0 0.168-0.168 0.336-0.36 0.336h-11.16c-0.168 0-0.336-0.192-0.384-0.36v-15.864c0-0.216 0.12-0.336 0.336-0.336h10.92c0.216 0 0.384 0.168 0.384 0.336v3.624c0 0.216-0.168 0.36-0.384 0.36h-6.264v1.896h5.088c0.216 0 0.336 0.168 0.312 0.312l-0.336 3.36c-0.024 0.144-0.192 0.312-0.408 0.312h-4.656v2.04zm15.888-5.832h6.504c0.192 0 0.36 0.168 0.36 0.336v7.632c0 0.216-0.12 0.432-0.288 0.576-1.44 1.224-3.648 1.944-5.952 1.944-5.184 0-8.64-3.456-8.64-8.64s3.456-8.64 8.64-8.64c1.776 0 3.648 0.528 5.04 1.392 0.192 0.096 0.264 0.288 0.216 0.432l-1.2 3.528c-0.072 0.168-0.24 0.24-0.456 0.192-0.984-0.528-2.256-0.84-3.456-0.84-2.208 0-3.696 1.584-3.696 3.936 0 2.4 1.488 3.984 3.696 3.984 0.888 0 1.488-0.168 1.752-0.456v-1.392h-2.208c-0.216 0-0.36-0.096-0.384-0.264l-0.312-3.312c-0.024-0.24 0.12-0.408 0.384-0.408zm18.672-6.096l5.424 15.936c0.072 0.144-0.024 0.312-0.216 0.312h-4.752c-0.216 0-0.408-0.12-0.504-0.312l-0.72-2.52h-4.512l-0.72 2.52c-0.096 0.192-0.288 0.312-0.504 0.312h-4.752c-0.192 0-0.288-0.168-0.216-0.312l5.424-15.936c0.072-0.144 0.336-0.312 0.576-0.312h4.896c0.24 0 0.504 0.168 0.576 0.312zm-1.728 9.984l-1.296-4.56-1.296 4.56h2.592zm17.16-10.296h4.248c0.216 0 0.36 0.168 0.36 0.36v15.864c0 0.168-0.144 0.336-0.36 0.336h-4.152c-0.168 0-0.384-0.12-0.504-0.312l-4.176-7.464v7.44c0 0.168-0.144 0.336-0.36 0.336h-4.248c-0.192 0-0.336-0.168-0.336-0.336v-15.864c0-0.192 0.144-0.36 0.336-0.36h4.152c0.216 0 0.456 0.12 0.552 0.312l4.152 7.464v-7.416c0-0.192 0.168-0.36 0.336-0.36z"/>
<path id="logo-rocks-type" d="m93.752 10.448l3.816 6.168c0.12 0.216-0.048 0.384-0.264 0.384h-5.136c-0.24 0-0.456-0.168-0.552-0.384l-2.496-5.232h-0.288v5.28c0 0.168-0.168 0.336-0.384 0.336h-4.224c-0.192 0-0.36-0.168-0.36-0.336v-15.864c0-0.192 0.168-0.36 0.36-0.36h6.336c3.696 0 6.144 2.16 6.144 5.424 0 1.896-1.152 3.816-2.952 4.584zm-4.92-3.144h1.416c0.816 0 1.368-0.504 1.368-1.272s-0.552-1.272-1.368-1.272h-1.416v2.544zm17.928 10.032c-5.112 0-8.52-3.456-8.52-8.616 0-5.208 3.408-8.664 8.52-8.664s8.52 3.456 8.52 8.664c0 5.16-3.408 8.616-8.52 8.616zm0-12.432c-1.968 0-3.288 1.536-3.288 3.816s1.32 3.816 3.288 3.816 3.288-1.536 3.288-3.816-1.32-3.816-3.288-3.816zm21.576 7.296l1.584 3.336c0.072 0.168-0.024 0.336-0.216 0.432-1.392 0.864-3.264 1.392-5.04 1.392-4.944 0-8.256-3.456-8.256-8.64s3.312-8.64 8.256-8.64c1.776 0 3.648 0.528 5.04 1.392 0.192 0.096 0.288 0.264 0.216 0.432l-1.584 3.336c-0.096 0.216-0.264 0.288-0.456 0.192-0.888-0.504-1.752-0.672-2.784-0.672-2.16 0-3.6 1.584-3.6 3.96s1.44 3.96 3.6 3.96c1.032 0 1.896-0.168 2.784-0.672 0.192-0.096 0.36-0.024 0.456 0.192zm12-3.864l5.112 8.376c0.12 0.168 0.024 0.288-0.168 0.288h-5.568c-0.168 0-0.408-0.12-0.504-0.288l-2.976-6v5.952c0 0.168-0.144 0.336-0.36 0.336h-4.248c-0.168 0-0.336-0.168-0.336-0.336v-15.864c0-0.192 0.168-0.36 0.336-0.36h4.248c0.216 0 0.36 0.168 0.36 0.36v5.376l2.88-5.448c0.096-0.168 0.336-0.288 0.552-0.288h5.256c0.192 0 0.264 0.12 0.168 0.288l-4.752 7.608zm5.832 7.008l1.512-3.384c0.072-0.24 0.24-0.312 0.432-0.192 1.104 0.624 2.424 1.08 3.336 1.152 0.768 0 1.272-0.36 1.272-0.912 0-1.416-6.744-1.344-6.744-6.576 0-3.216 2.424-5.352 6.072-5.352 1.704 0 3.864 0.696 5.376 1.728 0.192 0.12 0.264 0.312 0.192 0.432l-1.512 3.384c-0.072 0.24-0.24 0.312-0.432 0.192-1.176-0.672-2.544-1.176-3.384-1.248-0.744 0-1.224 0.336-1.224 0.864 0 1.416 6.792 1.32 6.792 6.6 0 3.192-2.472 5.328-6.168 5.328-2.016 0-4.128-0.624-5.328-1.584-0.192-0.144-0.264-0.312-0.192-0.432z"/>
</g>
</svg>
