<svg xmlns="http://www.w3.org/2000/svg" xmlns:xlink="http://www.w3.org/1999/xlink" width="1439" height="929"><defs><linearGradient id="b" x1="71.228%" x2="71.228%" y1="100%" y2="0%"><stop offset="0%" stop-color="#FDE5E3"/><stop offset="11.413%" stop-color="#D8CAD3"/><stop offset="21.545%" stop-color="#83A0B3"/><stop offset="50.988%" stop-color="#1F5178"/><stop offset="100%" stop-color="#090E43"/></linearGradient><path id="a" d="M0 1.3c182.636-21.561 418.04 232.259 779.85 232.259 318.014 0 493.288-135.593 660.15-134.227V679c-105.394-10.898-203.072-38.028-292.942-78.503-227.737-102.564-411.966-131.16-694.234-41.567C326.016 599.18 173.184 608.676 0 585.46 0 585.46.085 1.3 0 1.3z"/><linearGradient id="d" x1="50%" x2="50%" y1="100%" y2="0%"><stop offset="0%" stop-color="#FFF" stop-opacity=".243"/><stop offset="100%" stop-color="#FFF" stop-opacity=".04"/></linearGradient><linearGradient id="e" x1="50%" x2="50%" y1="0%" y2="100%"><stop offset="0%" stop-color="#FFF" stop-opacity=".427"/><stop offset="100%" stop-color="#FFF" stop-opacity=".27"/></linearGradient><linearGradient id="f" x1="50%" x2="50%" y1="0%" y2="100%"><stop offset="0%" stop-color="#FFF" stop-opacity=".333"/><stop offset="100%" stop-color="#FFF" stop-opacity=".717"/></linearGradient><linearGradient id="g" x1="50%" x2="50%" y1="0%" y2="100%"><stop offset="0%" stop-color="#FFF" stop-opacity="0"/><stop offset="37.319%" stop-color="#FFF" stop-opacity=".02"/><stop offset="100%" stop-color="#FFF" stop-opacity=".228"/></linearGradient></defs><g fill="none" fill-rule="evenodd"><g><mask id="c" fill="#fff"><use xlink:href="#a"/></mask><use fill="url(#b)" xlink:href="#a"/><path fill="#FFF" d="M207.923 165.427l5.574 6.528c.323.379.407.546.462.745.055.2.055.4 0 .6-.055.2-.139.366-.462.745l-5.574 6.528a1.212 1.212 0 0 1-1.846 0l-5.574-6.528c-.323-.379-.407-.546-.462-.745-.055-.2-.055-.4 0-.6.055-.2.139-.366.462-.745l5.574-6.528a1.212 1.212 0 0 1 1.846 0zM61.094 113.267l3.583 4.08c.207.237.261.341.297.466a.676.676 0 0 1 0 .374c-.036.125-.09.23-.297.466l-3.583 4.08a.795.795 0 0 1-1.188 0l-3.583-4.08c-.207-.237-.261-.341-.297-.466a.676.676 0 0 1 0-.374c.036-.125.09-.23.297-.466l3.583-4.08a.795.795 0 0 1 1.188 0zM133.094 67.267l3.583 4.08c.207.237.261.341.297.466a.676.676 0 0 1 0 .374c-.036.125-.09.23-.297.466l-3.583 4.08a.795.795 0 0 1-1.188 0l-3.583-4.08c-.207-.237-.261-.341-.297-.466a.676.676 0 0 1 0-.374c.036-.125.09-.23.297-.466l3.583-4.08a.795.795 0 0 1 1.188 0zM575.396 371.187l2.388 2.856c.139.166.175.239.198.326a.496.496 0 0 1 0 .262c-.023.087-.059.16-.198.326l-2.388 2.856a.512.512 0 0 1-.792 0l-2.388-2.856c-.139-.166-.175-.239-.198-.326a.496.496 0 0 1 0-.262c.023-.087.059-.16.198-.326l2.388-2.856a.512.512 0 0 1 .792 0zM1126.83 226.16l1.99 2.448c.116.142.146.205.165.28.02.074.02.15 0 .224-.02.075-.05.138-.165.28l-1.99 2.448a.419.419 0 0 1-.66 0l-1.99-2.448c-.116-.142-.146-.205-.165-.28a.437.437 0 0 1 0-.224c.02-.075.05-.138.165-.28l1.99-2.448a.419.419 0 0 1 .66 0zM1382.83 304.16l1.99 2.448c.116.142.146.205.165.28.02.074.02.15 0 .224-.02.075-.05.138-.165.28l-1.99 2.448a.419.419 0 0 1-.66 0l-1.99-2.448c-.116-.142-.146-.205-.165-.28a.437.437 0 0 1 0-.224c.02-.075.05-.138.165-.28l1.99-2.448a.419.419 0 0 1 .66 0zM303.83 229.16l1.99 2.448c.116.142.146.205.165.28.02.074.02.15 0 .224-.02.075-.05.138-.165.28l-1.99 2.448a.419.419 0 0 1-.66 0l-1.99-2.448c-.116-.142-.146-.205-.165-.28a.437.437 0 0 1 0-.224c.02-.075.05-.138.165-.28l1.99-2.448a.419.419 0 0 1 .66 0zM886.83 285.16l1.99 2.448c.116.142.146.205.165.28.02.074.02.15 0 .224-.02.075-.05.138-.165.28l-1.99 2.448a.419.419 0 0 1-.66 0l-1.99-2.448c-.116-.142-.146-.205-.165-.28a.437.437 0 0 1 0-.224c.02-.075.05-.138.165-.28l1.99-2.448a.419.419 0 0 1 .66 0zM53.83 245.16l1.99 2.448c.116.142.146.205.165.28.02.074.02.15 0 .224-.02.075-.05.138-.165.28l-1.99 2.448a.419.419 0 0 1-.66 0l-1.99-2.448c-.116-.142-.146-.205-.165-.28a.437.437 0 0 1 0-.224c.02-.075.05-.138.165-.28l1.99-2.448a.419.419 0 0 1 .66 0zM411.83 229.16l1.99 2.448c.116.142.146.205.165.28.02.074.02.15 0 .224-.02.075-.05.138-.165.28l-1.99 2.448a.419.419 0 0 1-.66 0l-1.99-2.448c-.116-.142-.146-.205-.165-.28a.437.437 0 0 1 0-.224c.02-.075.05-.138.165-.28l1.99-2.448a.419.419 0 0 1 .66 0zM1045.83 394.16l1.99 2.448c.116.142.146.205.165.28.02.074.02.15 0 .224-.02.075-.05.138-.165.28l-1.99 2.448a.419.419 0 0 1-.66 0l-1.99-2.448c-.116-.142-.146-.205-.165-.28a.437.437 0 0 1 0-.224c.02-.075.05-.138.165-.28l1.99-2.448a.419.419 0 0 1 .66 0z" mask="url(#c)"/><path fill="#211E41" d="M281.08 386.055a20 20 0 0 1 10.92 17.82v404.387a20 20 0 0 1-10.92 17.82l-80 40.763a20 20 0 0 1-18.16 0l-80-40.763A20 20 0 0 1 92 808.262V403.875a20 20 0 0 1 10.92-17.82l80-40.762a20 20 0 0 1 18.16 0l80 40.762z" mask="url(#c)"/><path fill="#1C1A21" d="M282.307 396.606a6.667 6.667 0 0 1 9.693 5.94v418.02l-90.307 46.014a6.667 6.667 0 0 1-9.693-5.94V454.875a20 20 0 0 1 10.92-17.82l79.387-40.45z" mask="url(#c)"/><path fill="#0B0B0D" d="M101.693 396.606l79.387 40.45a20 20 0 0 1 10.92 17.82V860.64a6.667 6.667 0 0 1-9.693 5.94L92 820.566v-418.02a6.667 6.667 0 0 1 9.693-5.94z" mask="url(#c)"/><path fill="#2F2C58" d="M280.342 385.68a6.667 6.667 0 0 1 0 11.88l-79.262 40.386a20 20 0 0 1-18.16 0l-79.262-40.387a6.667 6.667 0 0 1 0-11.88l79.262-40.386a20 20 0 0 1 18.16 0l79.262 40.386z" mask="url(#c)"/><path fill="url(#d)" d="M281.08 263.388a20 20 0 0 1 10.92 17.82v87.721a20 20 0 0 1-10.92 17.82l-80 40.762a20 20 0 0 1-18.16 0l-80-40.762A20 20 0 0 1 92 368.93v-87.72a20 20 0 0 1 10.92-17.82l80-40.763a20 20 0 0 1 18.16 0l80 40.762z" mask="url(#c)"/><path fill="url(#e)" d="M282.307 274.06A6.667 6.667 0 0 1 292 280v87.872a22 22 0 0 1-12.012 19.602l-78.295 39.893a6.667 6.667 0 0 1-9.693-5.94V332.33a20 20 0 0 1 10.92-17.82l79.387-40.45z" mask="url(#c)"/><path fill="#FFF" fill-opacity=".066" d="M182.307 222.727a6.667 6.667 0 0 1 9.693 5.94V330.02l-90.307 46.014a6.667 6.667 0 0 1-9.693-5.94v-89.098a20 20 0 0 1 10.92-17.82l79.387-40.45z" mask="url(#c)"/><path fill="#FFF" fill-opacity=".03" d="M101.693 274.06l79.387 40.45A20 20 0 0 1 192 332.33v89.097a6.667 6.667 0 0 1-9.693 5.94L92 381.354V280a6.667 6.667 0 0 1 9.693-5.94z" mask="url(#c)"/><path fill="#FFF" fill-opacity=".256" d="M201.693 222.727l79.387 40.45a20 20 0 0 1 10.92 17.82v89.097a6.667 6.667 0 0 1-9.693 5.94L192 330.02V228.667a6.667 6.667 0 0 1 9.693-5.94z" mask="url(#c)"/><path fill="url(#f)" d="M280.342 263.013a6.667 6.667 0 0 1 0 11.88l-79.262 40.386a20 20 0 0 1-18.16 0l-79.262-40.386a6.667 6.667 0 0 1 0-11.88l78.808-40.155a21 21 0 0 1 19.068 0l78.808 40.155z" mask="url(#c)"/><path fill="#FFF" fill-opacity=".172" d="M280.342 375.013a6.667 6.667 0 0 1 0 11.88l-79.262 40.386a20 20 0 0 1-18.16 0l-79.262-40.386a6.667 6.667 0 0 1 0-11.88L192 330l88.342 45.013z" mask="url(#c)"/><path fill="#FFF" d="M182.95 222.667l-79.292 40.4a6.667 6.667 0 0 0 0 11.88l79.262 40.387a20 20 0 0 0 18.16 0l79.262-40.386a6.667 6.667 0 0 0 0-11.88l-79.291-40.401.029.015 80 40.761a20.002 20.002 0 0 1 10.716 14.97 6.67 6.67 0 0 0-9.49-4.298l-79.386 40.45a20 20 0 0 0-10.92 17.82v89.097a6.667 6.667 0 0 0 8.284 6.468 20 20 0 0 1-16.568 0 6.667 6.667 0 0 0 8.284-6.468v-89.097a20 20 0 0 0-10.92-17.82l-79.387-40.45a6.667 6.667 0 0 0-9.49 4.299 20.002 20.002 0 0 1 10.717-14.97l80-40.762.03-.015z" mask="url(#c)" opacity=".351"/><path fill="#211E41" d="M511.08 484.388a20 20 0 0 1 10.92 17.82v87.721a20 20 0 0 1-10.92 17.82l-80 40.762a20 20 0 0 1-18.16 0l-80-40.762A20 20 0 0 1 322 589.93v-87.72a20 20 0 0 1 10.92-17.82l80-40.763a20 20 0 0 1 18.16 0l80 40.762z" mask="url(#c)"/><path fill="#1C1A21" d="M512.307 494.939a6.667 6.667 0 0 1 9.693 5.94v101.354l-90.307 46.013a6.667 6.667 0 0 1-9.693-5.94V553.21a20 20 0 0 1 10.92-17.82l79.387-40.45z" mask="url(#c)"/><path fill="#0B0B0D" d="M331.693 494.939l79.387 40.45a20 20 0 0 1 10.92 17.82v89.097a6.667 6.667 0 0 1-9.693 5.94L322 602.233V500.879a6.667 6.667 0 0 1 9.693-5.94z" mask="url(#c)"/><path fill="#2F2C58" d="M510.342 484.013a6.667 6.667 0 0 1 0 11.88l-79.262 40.386a20 20 0 0 1-18.16 0l-79.262-40.386a6.667 6.667 0 0 1 0-11.88L422 439l88.342 45.013z" mask="url(#c)"/><path fill="#211E41" d="M511.08 363.008A20.035 20.035 0 0 1 522 380.856v87.857c0 7.533-4.22 14.428-10.92 17.848l-80 40.825a19.972 19.972 0 0 1-18.16 0l-80-40.825A20.035 20.035 0 0 1 322 468.713v-87.857c0-7.532 4.22-14.428 10.92-17.848l80-40.825a19.972 19.972 0 0 1 18.16 0l80 40.825z" mask="url(#c)"/><path fill="#1C1A21" d="M512.307 373.576a6.658 6.658 0 0 1 3.026-.728c3.682 0 6.667 2.99 6.667 6.677v89.263a20 20 0 0 1-10.909 17.815l-79.398 40.518a6.658 6.658 0 0 1-3.026.728c-3.682 0-6.667-2.99-6.667-6.677v-89.236c0-7.533 4.22-14.428 10.92-17.848l79.387-40.512z" mask="url(#c)"/><path fill="#0B0B0D" d="M331.693 373.576l79.387 40.512A20.035 20.035 0 0 1 422 431.936v89.236c0 3.687-2.985 6.677-6.667 6.677-1.052 0-2.089-.25-3.026-.728l-79.943-40.796A19 19 0 0 1 322 469.4v-89.876c0-3.688 2.985-6.677 6.667-6.677 1.052 0 2.089.25 3.026.728z" mask="url(#c)"/><path fill="#2F2C58" d="M510.342 362.632a6.682 6.682 0 0 1 0 11.899L431.08 414.98a19.972 19.972 0 0 1-18.16 0l-79.262-40.45a6.682 6.682 0 0 1 0-11.899l79.251-40.442a20 20 0 0 1 18.182 0l79.251 40.443z" mask="url(#c)"/><path fill="#0C0C0C" d="M447 462.935c0-15.44 11.25-33.81 25-40.82 6.963-3.549 13.283-3.53 17.828-.644l6.25 3.185-1.334 2.32c1.447 2.808 2.256 6.33 2.256 10.469 0 15.44-11.25 33.809-25 40.819-2.895 1.476-5.678 2.333-8.27 2.626l-1.294 2.25-6.25-3.186c-5.598-2.306-9.186-8.3-9.186-17.019" mask="url(#c)"/><path fill="#2F2954" d="M503.333 440.822c0-15.473-11.25-22.385-25-15.36-13.75 7.024-25 25.431-25 40.904 0 15.473 11.25 22.385 25 15.36 13.75-7.024 25-25.431 25-40.904" mask="url(#c)"/><path fill="#0C0C0C" d="M484.753 443.764c0-2.463-.565-4.498-1.556-6.024 4.575-.142 7.803 3.307 7.803 9.197 0 7.862-5.75 17.215-12.778 20.784-4.826 2.452-9.05 1.563-11.222-1.78 1.531-.048 3.213-.497 4.975-1.392 7.028-3.57 12.778-12.923 12.778-20.785" mask="url(#c)"/><path fill="#000" d="M478.127 439.137c1.765-.901 3.449-1.353 4.982-1.401.992 1.535 1.558 3.583 1.558 6.062 0 7.911-5.758 17.323-12.794 20.915-1.765.9-3.449 1.353-4.982 1.4-.992-1.534-1.558-3.583-1.558-6.062 0-7.911 5.758-17.323 12.794-20.914" mask="url(#c)"/></g><path fill="#211E41" d="M1351.08 762.008a20.035 20.035 0 0 1 10.92 17.848v87.857c0 7.533-4.22 14.428-10.92 17.848l-80 40.825a19.972 19.972 0 0 1-18.16 0l-80-40.825a20.035 20.035 0 0 1-10.92-17.848v-87.857c0-7.532 4.22-14.428 10.92-17.848l80-40.825a19.972 19.972 0 0 1 18.16 0l80 40.825z"/><path fill="#1C1A21" d="M1352.307 772.576a6.658 6.658 0 0 1 3.026-.728c3.682 0 6.667 2.99 6.667 6.677v89.263a20 20 0 0 1-10.909 17.815l-79.398 40.518a6.658 6.658 0 0 1-3.026.728c-3.682 0-6.667-2.99-6.667-6.677v-89.236c0-7.533 4.22-14.428 10.92-17.848l79.387-40.512z"/><path fill="#0B0B0D" d="M1171.693 772.576l79.387 40.512a20.035 20.035 0 0 1 10.92 17.848v89.236c0 3.687-2.985 6.677-6.667 6.677-1.052 0-2.089-.25-3.026-.728l-79.943-40.796A19 19 0 0 1 1162 868.4v-89.876c0-3.688 2.985-6.677 6.667-6.677 1.052 0 2.089.25 3.026.728z"/><path fill="#2F2C58" d="M1350.342 761.632a6.682 6.682 0 0 1 0 11.899l-79.262 40.449a19.972 19.972 0 0 1-18.16 0l-79.262-40.45a6.682 6.682 0 0 1 0-11.899l79.251-40.442a20 20 0 0 1 18.182 0l79.251 40.443z"/><path fill="#18161D" d="M1237 861.935c0-15.44-11.25-33.81-25-40.82-6.963-3.549-13.283-3.53-17.828-.644l-6.25 3.185 1.334 2.32c-1.447 2.808-2.256 6.33-2.256 10.469 0 15.44 11.25 33.809 25 40.819 2.895 1.476 5.678 2.333 8.27 2.626l1.294 2.25 6.25-3.186c5.598-2.306 9.186-8.3 9.186-17.019"/><path fill="#23222B" d="M1180.667 839.822c0-15.473 11.25-22.385 25-15.36 13.75 7.024 25 25.431 25 40.904 0 15.473-11.25 22.385-25 15.36-13.75-7.024-25-25.431-25-40.904"/><path fill="#18161D" d="M1199.247 842.764c0-2.463.565-4.498 1.556-6.024-4.575-.142-7.803 3.307-7.803 9.197 0 7.862 5.75 17.215 12.778 20.784 4.826 2.452 9.05 1.563 11.222-1.78-1.53-.048-3.213-.497-4.975-1.392-7.028-3.57-12.778-12.923-12.778-20.785"/><path fill="#000" d="M1205.873 838.137c-1.765-.901-3.449-1.353-4.982-1.401-.992 1.535-1.558 3.583-1.558 6.062 0 7.911 5.758 17.323 12.794 20.915 1.765.9 3.449 1.353 4.982 1.4.992-1.534 1.558-3.583 1.558-6.062 0-7.911-5.758-17.323-12.794-20.914"/><path fill="#0C0C0C" d="M1287 861.935c0-15.44 11.25-33.81 25-40.82 6.963-3.549 13.283-3.53 17.828-.644l6.25 3.185-1.334 2.32c1.447 2.808 2.256 6.33 2.256 10.469 0 15.44-11.25 33.809-25 40.819-2.895 1.476-5.678 2.333-8.27 2.626l-1.294 2.25-6.25-3.186c-5.598-2.306-9.186-8.3-9.186-17.019"/><path fill="#2F2954" d="M1343.333 839.822c0-15.473-11.25-22.385-25-15.36-13.75 7.024-25 25.431-25 40.904 0 15.473 11.25 22.385 25 15.36 13.75-7.024 25-25.431 25-40.904"/><path fill="#0C0C0C" d="M1324.753 842.764c0-2.463-.565-4.498-1.556-6.024 4.575-.142 7.803 3.307 7.803 9.197 0 7.862-5.75 17.215-12.778 20.784-4.826 2.452-9.05 1.563-11.222-1.78 1.531-.048 3.213-.497 4.975-1.392 7.028-3.57 12.778-12.923 12.778-20.785"/><path fill="#000" d="M1318.127 838.137c1.765-.901 3.449-1.353 4.982-1.401.992 1.535 1.558 3.583 1.558 6.062 0 7.911-5.758 17.323-12.794 20.915-1.765.9-3.449 1.353-4.982 1.4-.992-1.534-1.558-3.583-1.558-6.062 0-7.911 5.758-17.323 12.794-20.914"/><g><path fill="#211E41" d="M1351.08 641.008a20.035 20.035 0 0 1 10.92 17.848v87.857c0 7.533-4.22 14.428-10.92 17.848l-80 40.825a19.972 19.972 0 0 1-18.16 0l-80-40.825a20.035 20.035 0 0 1-10.92-17.848v-87.857c0-7.532 4.22-14.428 10.92-17.848l80-40.825a19.972 19.972 0 0 1 18.16 0l80 40.825z"/><path fill="#1C1A21" d="M1352.307 651.576a6.658 6.658 0 0 1 3.026-.728c3.682 0 6.667 2.99 6.667 6.677v89.263a20 20 0 0 1-10.909 17.815l-79.398 40.518a6.658 6.658 0 0 1-3.026.728c-3.682 0-6.667-2.99-6.667-6.677v-89.236c0-7.533 4.22-14.428 10.92-17.848l79.387-40.512z"/><path fill="#0B0B0D" d="M1171.693 651.576l79.387 40.512a20.035 20.035 0 0 1 10.92 17.848v89.236c0 3.687-2.985 6.677-6.667 6.677-1.052 0-2.089-.25-3.026-.728l-79.943-40.796A19 19 0 0 1 1162 747.4v-89.876c0-3.688 2.985-6.677 6.667-6.677 1.052 0 2.089.25 3.026.728z"/><path fill="#2F2C58" d="M1350.342 640.632a6.682 6.682 0 0 1 0 11.899l-79.262 40.449a19.972 19.972 0 0 1-18.16 0l-79.262-40.45a6.682 6.682 0 0 1 0-11.899l79.251-40.442a20 20 0 0 1 18.182 0l79.251 40.443z"/><path fill="#18161D" d="M1237 740.935c0-15.44-11.25-33.81-25-40.82-6.963-3.549-13.283-3.53-17.828-.644l-6.25 3.185 1.334 2.32c-1.447 2.808-2.256 6.33-2.256 10.469 0 15.44 11.25 33.809 25 40.819 2.895 1.476 5.678 2.333 8.27 2.626l1.294 2.25 6.25-3.186c5.598-2.306 9.186-8.3 9.186-17.019"/><path fill="#23222B" d="M1180.667 718.822c0-15.473 11.25-22.385 25-15.36 13.75 7.024 25 25.431 25 40.904 0 15.473-11.25 22.385-25 15.36-13.75-7.024-25-25.431-25-40.904"/><path fill="#18161D" d="M1199.247 721.764c0-2.463.565-4.498 1.556-6.024-4.575-.142-7.803 3.307-7.803 9.197 0 7.862 5.75 17.215 12.778 20.784 4.826 2.452 9.05 1.563 11.222-1.78-1.53-.048-3.213-.497-4.975-1.392-7.028-3.57-12.778-12.923-12.778-20.785"/><path fill="#000" d="M1205.873 717.137c-1.765-.901-3.449-1.353-4.982-1.401-.992 1.535-1.558 3.583-1.558 6.062 0 7.911 5.758 17.323 12.794 20.915 1.765.9 3.449 1.353 4.982 1.4.992-1.534 1.558-3.583 1.558-6.062 0-7.911-5.758-17.323-12.794-20.914"/><path fill="#0C0C0C" d="M1287 740.935c0-15.44 11.25-33.81 25-40.82 6.963-3.549 13.283-3.53 17.828-.644l6.25 3.185-1.334 2.32c1.447 2.808 2.256 6.33 2.256 10.469 0 15.44-11.25 33.809-25 40.819-2.895 1.476-5.678 2.333-8.27 2.626l-1.294 2.25-6.25-3.186c-5.598-2.306-9.186-8.3-9.186-17.019"/><path fill="#2F2954" d="M1343.333 718.822c0-15.473-11.25-22.385-25-15.36-13.75 7.024-25 25.431-25 40.904 0 15.473 11.25 22.385 25 15.36 13.75-7.024 25-25.431 25-40.904"/><path fill="#0C0C0C" d="M1324.753 721.764c0-2.463-.565-4.498-1.556-6.024 4.575-.142 7.803 3.307 7.803 9.197 0 7.862-5.75 17.215-12.778 20.784-4.826 2.452-9.05 1.563-11.222-1.78 1.531-.048 3.213-.497 4.975-1.392 7.028-3.57 12.778-12.923 12.778-20.785"/><path fill="#000" d="M1318.127 717.137c1.765-.901 3.449-1.353 4.982-1.401.992 1.535 1.558 3.583 1.558 6.062 0 7.911-5.758 17.323-12.794 20.915-1.765.9-3.449 1.353-4.982 1.4-.992-1.534-1.558-3.583-1.558-6.062 0-7.911 5.758-17.323 12.794-20.914"/></g><g><path fill="#211E41" d="M1351.08 520.388a20 20 0 0 1 10.92 17.82v87.721a20 20 0 0 1-10.92 17.82l-80 40.762a20 20 0 0 1-18.16 0l-80-40.762a20 20 0 0 1-10.92-17.82v-87.72a20 20 0 0 1 10.92-17.82l80-40.763a20 20 0 0 1 18.16 0l80 40.762z"/><path fill="#1C1A21" d="M1352.307 530.939a6.667 6.667 0 0 1 9.693 5.94v89.098a20 20 0 0 1-10.92 17.82l-79.387 40.45a6.667 6.667 0 0 1-9.693-5.94v-89.098a20 20 0 0 1 10.92-17.82l79.387-40.45z"/><path fill="#0B0B0D" d="M1171.693 530.939l79.387 40.45a20 20 0 0 1 10.92 17.82v89.097a6.667 6.667 0 0 1-9.693 5.94l-79.387-40.45a20 20 0 0 1-10.92-17.82V536.88a6.667 6.667 0 0 1 9.693-5.94z"/><path fill="#2F2C58" d="M1350.342 520.013a6.667 6.667 0 0 1 0 11.88l-79.262 40.386a20 20 0 0 1-18.16 0l-79.262-40.386a6.667 6.667 0 0 1 0-11.88l78.808-40.155a21 21 0 0 1 19.068 0l78.808 40.155z"/><path fill="#000" d="M1223.892 532.055c-6.533-3.33-6.533-8.78 0-12.11l26.232-13.373c6.532-3.33 17.22-3.33 23.753 0l26.231 13.373c6.533 3.33 6.533 8.78 0 12.11l-26.231 13.373c-6.533 3.33-17.221 3.33-23.753 0l-26.232-13.373zm49.985-38.224c-6.533-3.33-17.221-3.33-23.753 0l-51.225 26.114c-6.532 3.33-6.532 8.78 0 12.11l51.225 26.114c6.532 3.33 17.22 3.33 23.753 0l51.224-26.114c6.532-3.33 6.532-8.78 0-12.11l-51.224-26.114z"/><path fill="#191720" d="M1218.992 526c0 2.195 1.634 4.39 4.9 6.055l26.232 13.373c6.532 3.33 17.22 3.33 23.753 0l26.231-13.373c3.058-1.56 4.685-3.583 4.88-5.636h.02l-.139 15.95-30.992 15.8c-6.533 3.33-17.221 3.33-23.753 0l-31.265-15.939.133-16.23z"/><path fill="url(#g)" d="M188.296 359.34l-79.25 40.376a19.998 19.998 0 0 1-18.156 0L11.64 359.34a6.665 6.665 0 0 1-3.514-7.224H8V8h183.97v344.115h-.158c.562 2.85-.8 5.84-3.516 7.224z" transform="translate(1162 173)"/><path fill="#FFF" d="M1299.312 308.939a2 2 0 0 1 2 2v69.322a2 2 0 1 1-4 0v-69.322a2 2 0 0 1 2-2zm-82.986 87.32a2 2 0 0 1 2 1.999v69.322a2 2 0 0 1-4 0v-69.322a2 2 0 0 1 2-2zm103.983 57.656a2 2 0 0 1 2 2v12.665a2 2 0 1 1-4 0v-12.665a2 2 0 0 1 2-2zm-56.324-107.649a2 2 0 0 1 2 2v12.665a2 2 0 1 1-4 0v-12.665a2 2 0 0 1 2-2zM1214.326 233a2 2 0 0 1 2 2v5.999a2 2 0 1 1-4 0v-6a2 2 0 0 1 2-1.999zM1334 394a2 2 0 0 1 2 2v5.999a2 2 0 0 1-4 0v-6a2 2 0 0 1 2-1.999zm-34.688 5.59a2 2 0 0 1 2 2v6a2 2 0 1 1-4 0v-6a2 2 0 0 1 2-2zM1191 354a2 2 0 0 1 2 2v29.328a2 2 0 0 1-4 0V356a2 2 0 0 1 2-2zm108.312-181a2 2 0 0 1 2 2v29.328a2 2 0 1 1-4 0V175a2 2 0 0 1 2-2z"/></g><g><path fill="#211E41" d="M511.08 46.459A20.035 20.035 0 0 1 522 64.307v87.856c0 7.533-4.22 14.428-10.92 17.848l-80 40.826a19.972 19.972 0 0 1-18.16 0l-80-40.826A20.035 20.035 0 0 1 322 152.163V64.307c0-7.533 4.22-14.429 10.92-17.848l80-40.825a19.972 19.972 0 0 1 18.16 0l80 40.825z"/><path fill="#1C1A21" d="M512.307 57.026a6.658 6.658 0 0 1 3.026-.728c3.682 0 6.667 2.99 6.667 6.677v89.264a20 20 0 0 1-10.909 17.814l-79.398 40.518a6.658 6.658 0 0 1-3.026.728c-3.682 0-6.667-2.99-6.667-6.677v-89.236c0-7.532 4.22-14.428 10.92-17.848l79.387-40.512z"/><path fill="#0B0B0D" d="M331.693 57.026l79.387 40.512A20.035 20.035 0 0 1 422 115.386v89.236c0 3.688-2.985 6.677-6.667 6.677-1.052 0-2.089-.25-3.026-.728l-79.943-40.796A19 19 0 0 1 322 152.85V62.975c0-3.688 2.985-6.677 6.667-6.677 1.052 0 2.089.25 3.026.728z"/><path fill="#2F2C58" d="M510.342 46.083a6.682 6.682 0 0 1 0 11.899L431.08 98.429a19.972 19.972 0 0 1-18.16 0l-79.262-40.449a6.682 6.682 0 0 1 0-11.899L412.909 5.64a20 20 0 0 1 18.182 0l79.251 40.444z"/><path fill="#18161D" d="M397 146.386c0-15.441-11.25-33.81-25-40.82-6.963-3.55-13.283-3.53-17.828-.645l-6.25 3.186 1.334 2.32c-1.447 2.807-2.256 6.33-2.256 10.468 0 15.44 11.25 33.81 25 40.82 2.895 1.475 5.678 2.332 8.27 2.625l1.294 2.25 6.25-3.186c5.598-2.306 9.186-8.3 9.186-17.018"/><path fill="#23222B" d="M340.667 124.272c0-15.473 11.25-22.385 25-15.36 13.75 7.024 25 25.431 25 40.904 0 15.473-11.25 22.386-25 15.361-13.75-7.025-25-25.432-25-40.905"/><path fill="#18161D" d="M359.247 127.215c0-2.463.565-4.5 1.556-6.024-4.575-.143-7.803 3.306-7.803 9.197 0 7.862 5.75 17.214 12.778 20.784 4.826 2.451 9.05 1.562 11.222-1.78-1.53-.049-3.213-.498-4.975-1.393-7.028-3.57-12.778-12.922-12.778-20.784"/><path fill="#000" d="M365.873 122.587c-1.765-.9-3.449-1.353-4.982-1.4-.992 1.534-1.558 3.583-1.558 6.061 0 7.912 5.758 17.323 12.794 20.915 1.765.9 3.449 1.353 4.982 1.4.992-1.534 1.558-3.583 1.558-6.061 0-7.912-5.758-17.323-12.794-20.915"/><path fill="#0C0C0C" d="M447 146.386c0-15.441 11.25-33.81 25-40.82 6.963-3.55 13.283-3.53 17.828-.645l6.25 3.186-1.334 2.32c1.447 2.807 2.256 6.33 2.256 10.468 0 15.44-11.25 33.81-25 40.82-2.895 1.475-5.678 2.332-8.27 2.625l-1.294 2.25-6.25-3.186c-5.598-2.306-9.186-8.3-9.186-17.018"/><path fill="#2F2954" d="M503.333 124.272c0-15.473-11.25-22.385-25-15.36-13.75 7.024-25 25.431-25 40.904 0 15.473 11.25 22.386 25 15.361 13.75-7.025 25-25.432 25-40.905"/><path fill="#0C0C0C" d="M484.753 127.215c0-2.463-.565-4.5-1.556-6.024 4.575-.143 7.803 3.306 7.803 9.197 0 7.862-5.75 17.214-12.778 20.784-4.826 2.451-9.05 1.562-11.222-1.78 1.531-.049 3.213-.498 4.975-1.393 7.028-3.57 12.778-12.922 12.778-20.784"/><path fill="#000" d="M478.127 122.587c1.765-.9 3.449-1.353 4.982-1.4.992 1.534 1.558 3.583 1.558 6.061 0 7.912-5.758 17.323-12.794 20.915-1.765.9-3.449 1.353-4.982 1.4-.992-1.534-1.558-3.583-1.558-6.061 0-7.912 5.758-17.323 12.794-20.915"/></g></g></svg>