<svg xmlns="http://www.w3.org/2000/svg" width="403" height="788"><defs><linearGradient id="a" x1="50%" x2="50%" y1="0%" y2="100%"><stop offset="0%" stop-color="#FFC200"/><stop offset="100%" stop-color="#FF9100"/></linearGradient><linearGradient id="b" x1="50%" x2="50%" y1="0%" y2="100%"><stop offset="0%" stop-color="#FFDA66"/><stop offset="100%" stop-color="#FFBD66"/></linearGradient><linearGradient id="c" x1="50%" x2="50%" y1="0%" y2="100%"><stop offset="0%" stop-color="#FF8100"/><stop offset="100%" stop-color="#FF6100"/></linearGradient><linearGradient id="d" x1="50%" x2="50%" y1="0%" y2="100%"><stop offset="0%" stop-color="#FFB04D"/><stop offset="100%" stop-color="#FF974D"/></linearGradient><linearGradient id="e" x1="50%" x2="50%" y1="0%" y2="100%"><stop offset="0%" stop-color="#06DFFF"/><stop offset="100%" stop-color="#5003FF"/></linearGradient><linearGradient id="f" x1="50%" x2="50%" y1="0%" y2="100%"><stop offset="0%" stop-color="#00EBFF"/><stop offset="100%" stop-color="#464FFF"/></linearGradient><linearGradient id="g" x1="50%" x2="50%" y1="0%" y2="100%"><stop offset="0%" stop-color="#3EF"/><stop offset="100%" stop-color="#677BFF"/></linearGradient><linearGradient id="h" x1="50%" x2="50%" y1="0%" y2="100%"><stop offset="0%" stop-color="#00C7D8"/><stop offset="100%" stop-color="#3D3CD8"/></linearGradient><linearGradient id="i" x1="50%" x2="50%" y1="0%" y2="100%"><stop offset="0%" stop-color="#3432FF"/><stop offset="100%" stop-color="#5100FF"/></linearGradient><linearGradient id="j" x1="50%" x2="50%" y1="0%" y2="100%"><stop offset="0%" stop-color="#437DFF"/><stop offset="100%" stop-color="#6E22FF"/></linearGradient><linearGradient id="k" x1="50%" x2="50%" y1="0%" y2="100%"><stop offset="0%" stop-color="#2437CA"/><stop offset="100%" stop-color="#4200CA"/></linearGradient><linearGradient id="l" x1="50%" x2="50%" y1="0%" y2="100%"><stop offset="0%" stop-color="#38ED2C"/><stop offset="100%" stop-color="#7ED40B"/></linearGradient><linearGradient id="m" x1="50%" x2="50%" y1="0%" y2="100%"><stop offset="0%" stop-color="#59F35A"/><stop offset="100%" stop-color="#91DF3F"/></linearGradient><linearGradient id="n" x1="50%" x2="50%" y1="0%" y2="100%"><stop offset="0%" stop-color="#2DD429"/><stop offset="100%" stop-color="#6BBD0B"/></linearGradient><linearGradient id="o" x1="50%" x2="50%" y1="0%" y2="100%"><stop offset="0%" stop-color="#67C506"/><stop offset="100%" stop-color="#7DBC00"/></linearGradient><linearGradient id="p" x1="50%" x2="50%" y1="0%" y2="100%"><stop offset="0%" stop-color="#75D42D"/><stop offset="100%" stop-color="#93C923"/></linearGradient><linearGradient id="q" x1="50%" x2="50%" y1="0%" y2="100%"><stop offset="0%" stop-color="#55AA06"/><stop offset="100%" stop-color="#6BA100"/></linearGradient><linearGradient id="r" x1="50%" x2="50%" y1="0%" y2="100%"><stop offset="0%" stop-color="#0FFE75"/><stop offset="100%" stop-color="#60FD53"/></linearGradient><linearGradient id="s" x1="50%" x2="50%" y1="0%" y2="100%"><stop offset="0%" stop-color="#66FEA5"/><stop offset="100%" stop-color="#95FE91"/></linearGradient><linearGradient id="t" x1="50%" x2="50%" y1="0%" y2="100%"><stop offset="0%" stop-color="#1BFA63"/><stop offset="100%" stop-color="#55F749"/></linearGradient><linearGradient id="u" x1="50%" x2="50%" y1="0%" y2="100%"><stop offset="0%" stop-color="#FF3ED4"/><stop offset="100%" stop-color="#6F13C4"/></linearGradient><linearGradient id="v" x1="50%" x2="50%" y1="0%" y2="100%"><stop offset="0%" stop-color="#FF3FD6"/><stop offset="100%" stop-color="#BE11B9"/></linearGradient><linearGradient id="w" x1="50%" x2="50%" y1="0%" y2="100%"><stop offset="0%" stop-color="#FF63DB"/><stop offset="100%" stop-color="#D03FC4"/></linearGradient><linearGradient id="x" x1="50%" x2="50%" y1="0%" y2="100%"><stop offset="0%" stop-color="#D834B3"/><stop offset="100%" stop-color="#9C0F9E"/></linearGradient><linearGradient id="y" x1="50%" x2="50%" y1="0%" y2="100%"><stop offset="0%" stop-color="#A30BA7"/><stop offset="100%" stop-color="#6F13C4"/></linearGradient><linearGradient id="z" x1="50%" x2="50%" y1="0%" y2="100%"><stop offset="0%" stop-color="#D328A9"/><stop offset="100%" stop-color="#8835CF"/></linearGradient><linearGradient id="A" x1="50%" x2="50%" y1="0%" y2="100%"><stop offset="0%" stop-color="#8D0782"/><stop offset="100%" stop-color="#4200CA"/></linearGradient></defs><g fill="none" fill-rule="evenodd"><path fill="#D9DEEE" d="M244.979 240.96l11.943 14.69c.693.851.872 1.227.99 1.675.117.449.117.901 0 1.35-.118.448-.297.824-.99 1.676L244.98 275.04c-.939 1.154-2.585 1.286-3.678.295-.1-.09-.194-.19-.28-.295l-11.943-14.69c-.693-.851-.872-1.227-.99-1.675a2.621 2.621 0 0 1 0-1.35c.118-.448.297-.824.99-1.676l11.943-14.689c.939-1.154 2.585-1.286 3.678-.295.1.09.194.19.28.295zM353.32.64l7.962 9.793c.461.568.58.818.66 1.117.078.3.078.6 0 .9-.08.299-.199.55-.66 1.117l-7.963 9.793a1.676 1.676 0 0 1-2.452.197 1.79 1.79 0 0 1-.186-.197l-7.963-9.793c-.461-.568-.58-.818-.66-1.117-.078-.3-.078-.6 0-.9.08-.299.199-.55.66-1.117L350.681.64a1.676 1.676 0 0 1 2.452-.197c.066.06.129.126.186.197zM392.923 455.453l5.574 6.937c.323.402.407.58.462.791.055.212.055.426 0 .638-.055.211-.139.389-.462.791l-5.574 6.937a1.164 1.164 0 0 1-1.716.14 1.262 1.262 0 0 1-.13-.14l-5.574-6.937c-.323-.402-.407-.58-.462-.791a1.252 1.252 0 0 1 0-.638c.055-.211.139-.389.462-.791l5.574-6.937a1.164 1.164 0 0 1 1.716-.14c.047.044.09.09.13.14zM7.923 580.453l5.574 6.937c.323.402.407.58.462.791.055.212.055.426 0 .638-.055.211-.139.389-.462.791l-5.574 6.937a1.164 1.164 0 0 1-1.716.14 1.262 1.262 0 0 1-.13-.14L.503 589.61c-.323-.402-.407-.58-.462-.791a1.252 1.252 0 0 1 0-.638c.055-.211.139-.389.462-.791l5.574-6.937a1.164 1.164 0 0 1 1.716-.14c.047.044.09.09.13.14z"/><path fill="#FF8F00" d="M329.186 745.19l-28.888-28.89a7.833 7.833 0 0 0-5.556-2.3 7.834 7.834 0 0 0-5.556 2.3l-28.888 28.89a7.843 7.843 0 0 0-2.17 6.969 7.815 7.815 0 0 0 2.17 4.142l28.888 28.889a7.834 7.834 0 0 0 5.556 2.3 7.833 7.833 0 0 0 5.556-2.3l28.888-28.89a7.815 7.815 0 0 0 2.17-4.141 7.84 7.84 0 0 0-2.17-6.97"/><path fill="url(#a)" d="M331.356 752.159a7.846 7.846 0 0 0-2.17-6.97l-28.889-28.887a7.83 7.83 0 0 0-5.555-2.302v52.258l36.614-14.1z"/><path fill="url(#b)" d="M258.128 752.159l36.614 14.099V714c-2.01 0-4.021.767-5.556 2.302l-28.888 28.888a7.843 7.843 0 0 0-2.17 6.969"/><path fill="url(#c)" d="M294.742 787.49a7.834 7.834 0 0 0 5.556-2.3l28.888-28.888a7.814 7.814 0 0 0 2.17-4.143l-36.614 14.099v21.233z"/><path fill="url(#d)" d="M258.128 752.159a7.814 7.814 0 0 0 2.17 4.143l28.888 28.888a7.836 7.836 0 0 0 5.556 2.3v-21.232l-36.614-14.1z"/><path fill="url(#e)" d="M172.002 507.154l-37.817-37.816a7.802 7.802 0 0 0-3.92-2.125 7.855 7.855 0 0 0-2.806-.08 7.8 7.8 0 0 0-4.385 2.205l-37.817 37.816a7.845 7.845 0 0 0-2.043 7.527 7.809 7.809 0 0 0 2.043 3.585l37.817 37.817a7.822 7.822 0 0 0 3.244 1.952 7.89 7.89 0 0 0 5.186-.197 7.818 7.818 0 0 0 2.68-1.755l37.818-37.817a7.813 7.813 0 0 0 2.04-3.571 7.85 7.85 0 0 0-2.04-7.541" transform="rotate(-7 128.63 512.712)"/><path fill="url(#f)" d="M149.095 527.121l.136-.073-20.878-59.744a7.86 7.86 0 0 0-2.807-.08l-20.93 59.897h44.48z" transform="rotate(-7 126.923 497.128)"/><path fill="url(#g)" d="M81.483 517.651l23.218 12.35h.095l20.932-59.899c-1.605.24-3.15.97-4.385 2.205l-37.817 37.817a7.845 7.845 0 0 0-2.043 7.527" transform="rotate(-7 103.48 500.051)"/><path fill="url(#h)" d="M171.96 511.929a7.847 7.847 0 0 0-2.04-7.541l-37.816-37.816a7.81 7.81 0 0 0-3.92-2.125l20.878 59.744 22.898-12.262z" transform="rotate(-7 150.2 494.319)"/><path fill="url(#i)" d="M154.792 526.706l-.136.073h-44.48l-.033.095 19.824 30.91a7.883 7.883 0 0 0 5.186-.197l19.698-30.713-.06-.168z" transform="rotate(-7 132.497 542.418)"/><path fill="url(#j)" d="M109.587 529.761h-.095l-23.218-12.349a7.807 7.807 0 0 0 2.042 3.585l37.818 37.818a7.822 7.822 0 0 0 3.244 1.951l-19.825-30.91.034-.095z" transform="rotate(-7 107.826 539.09)"/><path fill="url(#k)" d="M153.892 524.006l-19.697 30.713a7.824 7.824 0 0 0 2.68-1.755l37.817-37.816a7.813 7.813 0 0 0 2.04-3.572l-22.9 12.262.06.168z" transform="rotate(-7 155.463 533.148)"/><path fill="#59E11D" d="M397.632 312.714a9.811 9.811 0 0 0-.233-1.15 9.426 9.426 0 0 0-.837-2.14c-.566-1.047-1.185-1.9-3.218-4.078l-27.338-29.292c-1.073-1.15-1.825-1.84-2.468-2.308a6.69 6.69 0 0 0-1.488-.832 6.435 6.435 0 0 0-3.424-.42c-.471.068-.92.17-1.438.363-.776.29-1.715.788-3.161 1.726l-33.611 21.808c-2.5 1.623-3.308 2.3-4.11 3.178a9.384 9.384 0 0 0-1.834 2.935c-.054.135-.104.269-.154.406-.35.98-.585 2.084-.903 4.68l-6.173 50.27c-.285 2.327-.344 3.472-.28 4.43.018.261.041.51.076.762a9.393 9.393 0 0 0 1.07 3.29c.565 1.046 1.184 1.9 3.218 4.078l27.337 29.292c.975 1.045 1.687 1.715 2.291 2.18.61.47 1.112.734 1.666.96 1.1.451 2.246.592 3.424.42.394-.057.773-.14 1.189-.277.826-.272 1.807-.772 3.409-1.812l33.612-21.808c2.5-1.623 3.307-2.3 4.11-3.178a9.371 9.371 0 0 0 1.353-1.92c.175-.325.34-.66.48-1.014.44-1.106.694-2.129 1.057-5.088l6.173-50.27c.363-2.958.363-4.012.205-5.19"/><path fill="url(#l)" d="M334.574 314.298v62.747l.019.036h33.28l.019-.006v-62.759h-33.248z" transform="rotate(7 351.233 345.69)"/><path fill="url(#m)" d="M335.212 373.522l-.019-.036v-62.747L310 304.168c-.227 1.014-.326 2.14-.326 4.755v50.648c0 2.344.081 3.488.262 4.431l25.273 9.52h.004z" transform="rotate(7 322.443 338.845)"/><path fill="url(#n)" d="M368.166 317.95v62.758l25.022-7.7c.134-.346.256-.697.353-1.067.301-1.152.43-2.198.43-5.178v-50.648c0-2.98-.129-4.026-.43-5.177a9.895 9.895 0 0 0-.37-1.114l-24.969 8.125h-.036z" transform="rotate(7 381.068 345.266)"/><path fill="url(#o)" d="M362.444 376.744l-.02.006h-33.28l13.288 25.644a6.703 6.703 0 0 0 1.77.749 6.416 6.416 0 0 0 3.45 0c.384-.104.75-.233 1.146-.42l13.646-25.93v-.05z" transform="rotate(7 345.794 390.061)"/><path fill="url(#p)" d="M329.949 374.03l-25.273-9.52c.048.255.103.5.168.746a9.377 9.377 0 0 0 1.462 3.135c.689.97 1.408 1.741 3.692 3.656l30.703 25.742c1.095.918 1.883 1.496 2.54 1.885l-13.288-25.645h-.004z" transform="rotate(7 323.959 382.092)"/><path fill="url(#q)" d="M362.787 379.546l-13.646 25.931c.787-.37 1.7-.988 3.163-2.214l30.704-25.742c2.283-1.915 3.002-2.686 3.69-3.656a9.342 9.342 0 0 0 1.11-2.069l-25.021 7.701v.05z" transform="rotate(7 368.475 388.637)"/><path fill="url(#r)" d="M340.982 314.69l.07.018H374.3v-.162l-13.214-41.373a6.775 6.775 0 0 0-1.578-.644 6.455 6.455 0 0 0-3.45 0 6.784 6.784 0 0 0-1.383.537l-13.693 41.4v.224z" transform="rotate(7 357.64 293.502)"/><path fill="url(#s)" d="M341.103 311.733l13.693-41.4c-.735.381-1.606.99-2.926 2.097l-30.704 25.742c-2.284 1.915-3.002 2.686-3.691 3.656a9.399 9.399 0 0 0-1.463 3.135c-.037.142-.071.281-.103.422l25.194 6.572v-.224z" transform="rotate(7 335.352 291.145)"/><path fill="url(#t)" d="M394.3 303.652l-30.705-25.742c-1.205-1.011-2.034-1.603-2.73-1.99l13.213 41.372v.162h.036l24.968-8.124a9.426 9.426 0 0 0-1.092-2.023c-.689-.97-1.408-1.74-3.69-3.655" transform="rotate(7 379.973 296.687)"/><path fill="url(#u)" d="M274.017 106.135L236.2 68.319a7.802 7.802 0 0 0-3.92-2.125 7.855 7.855 0 0 0-2.806-.08 7.8 7.8 0 0 0-4.385 2.205l-37.817 37.816a7.845 7.845 0 0 0-2.043 7.527 7.809 7.809 0 0 0 2.043 3.585l37.817 37.817a7.822 7.822 0 0 0 3.244 1.952 7.89 7.89 0 0 0 5.186-.197 7.818 7.818 0 0 0 2.681-1.755l37.817-37.817a7.813 7.813 0 0 0 2.04-3.571 7.85 7.85 0 0 0-2.04-7.541" transform="rotate(-4 230.645 111.693)"/><path fill="url(#v)" d="M251.929 126.034l.136-.073-20.878-59.744a7.86 7.86 0 0 0-2.807-.08l-20.931 59.897h44.48z" transform="rotate(-4 229.757 96.041)"/><path fill="url(#w)" d="M184.196 115.334l23.218 12.349h.095l20.932-59.898c-1.605.24-3.15.97-4.385 2.205l-37.817 37.817a7.845 7.845 0 0 0-2.043 7.527" transform="rotate(-4 206.192 97.734)"/><path fill="url(#x)" d="M274.91 112.064a7.847 7.847 0 0 0-2.04-7.541l-37.817-37.816a7.81 7.81 0 0 0-3.92-2.125l20.878 59.744 22.898-12.262z" transform="rotate(-4 253.149 94.454)"/><path fill="url(#y)" d="M255.247 125.849l-.136.073h-44.48l-.033.095 19.824 30.91a7.883 7.883 0 0 0 5.186-.197l19.698-30.713-.059-.168z" transform="rotate(-4 232.952 141.561)"/><path fill="url(#z)" d="M210.25 127.617h-.095l-23.218-12.349a7.807 7.807 0 0 0 2.042 3.585l37.818 37.818a7.822 7.822 0 0 0 3.244 1.951l-19.825-30.91.034-.095z" transform="rotate(-4 208.49 136.945)"/><path fill="url(#A)" d="M254.801 124.364l-19.697 30.713a7.824 7.824 0 0 0 2.68-1.755l37.817-37.816a7.813 7.813 0 0 0 2.04-3.572l-22.899 12.262.06.168z" transform="rotate(-4 256.373 133.505)"/></g></svg>