<svg version="1" xmlns="http://www.w3.org/2000/svg" width="933.333" height="933.333" viewBox="0 0 700.000000 700.000000"><path d="M72.9.4c-.2.2-3.3.7-6.8 1.1-10.2 1.1-16.9 3.1-27 8.2C22.2 18.1 9.8 33.2 3.9 52.4.2 64.8.1 66.6.4 353.5c.1 152.9.6 279.8 1 282 3.7 19.6 9.4 31.5 20.5 42.6 6.1 6 13.7 11.2 21.6 14.6 7.8 3.4 11.5 4.3 23.5 6 3 .5 131.1.8 284.5.8 260.4 0 279.6-.1 288.1-1.7 27.6-5.3 48.3-23.4 56.1-49.3 4.1-13.6 4.1-11.8 3.9-302-.1-152.9-.6-279.8-1-282-3.7-19.7-9.4-31.4-20.5-42.5-10.3-10.4-24.6-17.8-37.8-19.6-2.1-.2-6.9-.9-10.8-1.3C622.9.2 73.8-.4 72.9.4z"/></svg>